<mxfile host="Electron" agent="Mozilla/5.0 (Windows NT 10.0; Win64; x64) AppleWebKit/537.36 (KHTML, like Gecko) draw.io/25.0.2 Chrome/128.0.6613.186 Electron/32.2.5 Safari/537.36" version="25.0.2">
  <diagram name="Page-1" id="rEm4B-3O66ELs0HvD85p">
    <mxGraphModel dx="1434" dy="956" grid="1" gridSize="10" guides="1" tooltips="1" connect="1" arrows="1" fold="1" page="1" pageScale="1" pageWidth="850" pageHeight="1100" math="0" shadow="0">
      <root>
        <mxCell id="0" />
        <mxCell id="1" parent="0" />
        <mxCell id="VAFKmhwclhle3ZTMb9hA-13" style="edgeStyle=orthogonalEdgeStyle;rounded=0;orthogonalLoop=1;jettySize=auto;html=1;exitX=0.5;exitY=1;exitDx=0;exitDy=0;entryX=0.5;entryY=0;entryDx=0;entryDy=0;" parent="1" source="VAFKmhwclhle3ZTMb9hA-7" target="VAFKmhwclhle3ZTMb9hA-47" edge="1">
          <mxGeometry relative="1" as="geometry">
            <mxPoint x="165" y="340" as="targetPoint" />
          </mxGeometry>
        </mxCell>
        <mxCell id="VAFKmhwclhle3ZTMb9hA-14" style="edgeStyle=orthogonalEdgeStyle;rounded=0;orthogonalLoop=1;jettySize=auto;html=1;entryX=0.5;entryY=0;entryDx=0;entryDy=0;" parent="1" source="VAFKmhwclhle3ZTMb9hA-7" target="VAFKmhwclhle3ZTMb9hA-48" edge="1">
          <mxGeometry relative="1" as="geometry">
            <mxPoint x="405.0000000000002" y="370" as="targetPoint" />
          </mxGeometry>
        </mxCell>
        <mxCell id="VAFKmhwclhle3ZTMb9hA-17" style="edgeStyle=orthogonalEdgeStyle;rounded=0;orthogonalLoop=1;jettySize=auto;html=1;exitX=0.5;exitY=1;exitDx=0;exitDy=0;" parent="1" source="VAFKmhwclhle3ZTMb9hA-7" target="VAFKmhwclhle3ZTMb9hA-10" edge="1">
          <mxGeometry relative="1" as="geometry" />
        </mxCell>
        <mxCell id="VAFKmhwclhle3ZTMb9hA-7" value="&lt;p style=&quot;margin:0px;margin-top:4px;text-align:center;&quot;&gt;&lt;b&gt;BOOT_FSM_STATE_WAIT&lt;/b&gt;&lt;br&gt;&lt;/p&gt;&lt;hr size=&quot;1&quot; style=&quot;border-style:solid;&quot;&gt;&lt;div style=&quot;text-align: center; height: 2px;&quot;&gt;Wait for incomming request.&lt;/div&gt;" style="verticalAlign=top;align=left;overflow=fill;html=1;whiteSpace=wrap;rounded=1;" parent="1" vertex="1">
          <mxGeometry x="300" y="250" width="210" height="60" as="geometry" />
        </mxCell>
        <mxCell id="VAFKmhwclhle3ZTMb9hA-44" value="" style="edgeStyle=orthogonalEdgeStyle;rounded=0;orthogonalLoop=1;jettySize=auto;html=1;exitX=0.5;exitY=1;exitDx=0;exitDy=0;" parent="1" source="VAFKmhwclhle3ZTMb9hA-48" target="VAFKmhwclhle3ZTMb9hA-12" edge="1">
          <mxGeometry relative="1" as="geometry">
            <mxPoint x="405.0000000000002" y="430" as="sourcePoint" />
          </mxGeometry>
        </mxCell>
        <mxCell id="VAFKmhwclhle3ZTMb9hA-23" style="edgeStyle=orthogonalEdgeStyle;rounded=0;orthogonalLoop=1;jettySize=auto;html=1;exitX=0.5;exitY=1;exitDx=0;exitDy=0;entryX=0.5;entryY=0;entryDx=0;entryDy=0;entryPerimeter=0;" parent="1" source="VAFKmhwclhle3ZTMb9hA-10" target="VAFKmhwclhle3ZTMb9hA-32" edge="1">
          <mxGeometry relative="1" as="geometry">
            <mxPoint x="645" y="470" as="targetPoint" />
          </mxGeometry>
        </mxCell>
        <mxCell id="VAFKmhwclhle3ZTMb9hA-10" value="&lt;p style=&quot;margin:0px;margin-top:4px;text-align:center;&quot;&gt;&lt;b&gt;BOOT_FSM_STATE_RUN&lt;/b&gt;&lt;br&gt;&lt;/p&gt;&lt;hr size=&quot;1&quot; style=&quot;border-style:solid;&quot;&gt;&lt;div style=&quot;text-align: center; height: 2px;&quot;&gt;Start the flashed program.&lt;/div&gt;" style="verticalAlign=top;align=left;overflow=fill;html=1;whiteSpace=wrap;rounded=1;" parent="1" vertex="1">
          <mxGeometry x="540" y="370" width="210" height="60" as="geometry" />
        </mxCell>
        <mxCell id="VAFKmhwclhle3ZTMb9hA-12" value="&lt;p style=&quot;margin:0px;margin-top:4px;text-align:center;&quot;&gt;&lt;b&gt;BOOT_FSM_STATE_ERROR&lt;/b&gt;&lt;br&gt;&lt;/p&gt;&lt;hr size=&quot;1&quot; style=&quot;border-style:solid;&quot;&gt;&lt;div style=&quot;text-align: center; height: 2px;&quot;&gt;Error status.&lt;/div&gt;&lt;div style=&quot;text-align: center; height: 2px;&quot;&gt;&lt;br&gt;&lt;/div&gt;" style="verticalAlign=top;align=left;overflow=fill;html=1;whiteSpace=wrap;rounded=1;fillColor=#f8cecc;strokeColor=#b85450;" parent="1" vertex="1">
          <mxGeometry x="300" y="480" width="210" height="60" as="geometry" />
        </mxCell>
        <mxCell id="VAFKmhwclhle3ZTMb9hA-38" style="edgeStyle=orthogonalEdgeStyle;rounded=0;orthogonalLoop=1;jettySize=auto;html=1;exitX=0.5;exitY=1;exitDx=0;exitDy=0;entryX=0.5;entryY=0;entryDx=0;entryDy=0;" parent="1" source="VAFKmhwclhle3ZTMb9hA-20" target="VAFKmhwclhle3ZTMb9hA-7" edge="1">
          <mxGeometry relative="1" as="geometry" />
        </mxCell>
        <mxCell id="VAFKmhwclhle3ZTMb9hA-20" value="" style="ellipse;html=1;shape=startState;fillColor=#000000;strokeColor=#ff0000;" parent="1" vertex="1">
          <mxGeometry x="390" y="160" width="30" height="30" as="geometry" />
        </mxCell>
        <mxCell id="VAFKmhwclhle3ZTMb9hA-24" value="&lt;b&gt;Start (uninitialized)&lt;/b&gt;" style="text;html=1;align=center;verticalAlign=middle;whiteSpace=wrap;rounded=0;" parent="1" vertex="1">
          <mxGeometry x="375" y="130" width="60" height="30" as="geometry" />
        </mxCell>
        <mxCell id="VAFKmhwclhle3ZTMb9hA-33" style="edgeStyle=orthogonalEdgeStyle;rounded=0;orthogonalLoop=1;jettySize=auto;html=1;exitX=0;exitY=0.5;exitDx=0;exitDy=0;exitPerimeter=0;entryX=1;entryY=0.5;entryDx=0;entryDy=0;" parent="1" source="VAFKmhwclhle3ZTMb9hA-32" target="VAFKmhwclhle3ZTMb9hA-12" edge="1">
          <mxGeometry relative="1" as="geometry" />
        </mxCell>
        <mxCell id="VAFKmhwclhle3ZTMb9hA-34" style="edgeStyle=orthogonalEdgeStyle;rounded=0;orthogonalLoop=1;jettySize=auto;html=1;exitX=0.5;exitY=1;exitDx=0;exitDy=0;exitPerimeter=0;entryX=0.5;entryY=0;entryDx=0;entryDy=0;" parent="1" source="VAFKmhwclhle3ZTMb9hA-32" target="VAFKmhwclhle3ZTMb9hA-35" edge="1">
          <mxGeometry relative="1" as="geometry">
            <mxPoint x="645.1666666666667" y="590" as="targetPoint" />
          </mxGeometry>
        </mxCell>
        <mxCell id="VAFKmhwclhle3ZTMb9hA-37" value="&lt;b&gt;Yes&lt;/b&gt;" style="edgeLabel;html=1;align=right;verticalAlign=middle;resizable=0;points=[];labelPosition=left;verticalLabelPosition=middle;spacingLeft=16;" parent="VAFKmhwclhle3ZTMb9hA-34" vertex="1" connectable="0">
          <mxGeometry x="0.013" y="1" relative="1" as="geometry">
            <mxPoint x="-6" as="offset" />
          </mxGeometry>
        </mxCell>
        <mxCell id="VAFKmhwclhle3ZTMb9hA-32" value="Jump into program successfully?" style="strokeWidth=2;html=1;shape=mxgraph.flowchart.decision;whiteSpace=wrap;" parent="1" vertex="1">
          <mxGeometry x="565" y="460" width="160" height="100" as="geometry" />
        </mxCell>
        <mxCell id="VAFKmhwclhle3ZTMb9hA-35" value="" style="ellipse;html=1;shape=endState;fillColor=#000000;strokeColor=#ff0000;" parent="1" vertex="1">
          <mxGeometry x="630" y="620" width="30" height="30" as="geometry" />
        </mxCell>
        <mxCell id="VAFKmhwclhle3ZTMb9hA-39" value="&lt;b&gt;End&lt;/b&gt;" style="text;html=1;align=center;verticalAlign=middle;whiteSpace=wrap;rounded=0;" parent="1" vertex="1">
          <mxGeometry x="615" y="650" width="60" height="30" as="geometry" />
        </mxCell>
        <mxCell id="VAFKmhwclhle3ZTMb9hA-40" value="&lt;b&gt;No&lt;/b&gt;" style="edgeLabel;html=1;align=right;verticalAlign=middle;resizable=0;points=[];labelPosition=left;verticalLabelPosition=middle;spacingLeft=16;" parent="1" vertex="1" connectable="0">
          <mxGeometry x="549.9999999999998" y="500" as="geometry" />
        </mxCell>
        <mxCell id="VAFKmhwclhle3ZTMb9hA-42" style="edgeStyle=orthogonalEdgeStyle;rounded=0;orthogonalLoop=1;jettySize=auto;html=1;exitX=0.75;exitY=1;exitDx=0;exitDy=0;entryX=1;entryY=0.75;entryDx=0;entryDy=0;" parent="1" source="VAFKmhwclhle3ZTMb9hA-7" target="VAFKmhwclhle3ZTMb9hA-7" edge="1">
          <mxGeometry relative="1" as="geometry">
            <Array as="points">
              <mxPoint x="458" y="320" />
              <mxPoint x="530" y="320" />
              <mxPoint x="530" y="295" />
            </Array>
          </mxGeometry>
        </mxCell>
        <mxCell id="VAFKmhwclhle3ZTMb9hA-52" style="edgeStyle=orthogonalEdgeStyle;rounded=0;orthogonalLoop=1;jettySize=auto;html=1;entryX=0;entryY=0.5;entryDx=0;entryDy=0;" parent="1" source="VAFKmhwclhle3ZTMb9hA-46" target="VAFKmhwclhle3ZTMb9hA-20" edge="1">
          <mxGeometry relative="1" as="geometry">
            <Array as="points">
              <mxPoint x="30" y="510" />
              <mxPoint x="30" y="175" />
            </Array>
          </mxGeometry>
        </mxCell>
        <mxCell id="VAFKmhwclhle3ZTMb9hA-55" style="edgeStyle=orthogonalEdgeStyle;rounded=0;orthogonalLoop=1;jettySize=auto;html=1;exitX=1;exitY=0.5;exitDx=0;exitDy=0;exitPerimeter=0;entryX=0;entryY=0.5;entryDx=0;entryDy=0;" parent="1" source="VAFKmhwclhle3ZTMb9hA-46" target="VAFKmhwclhle3ZTMb9hA-12" edge="1">
          <mxGeometry relative="1" as="geometry" />
        </mxCell>
        <mxCell id="VAFKmhwclhle3ZTMb9hA-46" value="Reset successfully?" style="strokeWidth=2;html=1;shape=mxgraph.flowchart.decision;whiteSpace=wrap;" parent="1" vertex="1">
          <mxGeometry x="85" y="460" width="160" height="100" as="geometry" />
        </mxCell>
        <mxCell id="VAFKmhwclhle3ZTMb9hA-47" value="&lt;p style=&quot;margin:0px;margin-top:4px;text-align:center;&quot;&gt;&lt;b&gt;BOOT_FSM_STATE_RESET&lt;/b&gt;&lt;br&gt;&lt;/p&gt;&lt;hr size=&quot;1&quot; style=&quot;border-style:solid;&quot;&gt;&lt;div style=&quot;text-align: center; height: 2px;&quot;&gt;Wait for incomming request.&lt;/div&gt;" style="verticalAlign=top;align=left;overflow=fill;html=1;whiteSpace=wrap;rounded=1;" parent="1" vertex="1">
          <mxGeometry x="60" y="370" width="210" height="60" as="geometry" />
        </mxCell>
        <mxCell id="VAFKmhwclhle3ZTMb9hA-48" value="&lt;p style=&quot;margin:0px;margin-top:4px;text-align:center;&quot;&gt;&lt;b&gt;BOOT_FSM_STATE_LOAD&lt;/b&gt;&lt;br&gt;&lt;/p&gt;&lt;hr size=&quot;1&quot; style=&quot;border-style:solid;&quot;&gt;&lt;div style=&quot;text-align: center; height: 2px;&quot;&gt;Receive and write data into flash.&lt;/div&gt;" style="verticalAlign=top;align=left;overflow=fill;html=1;whiteSpace=wrap;rounded=1;" parent="1" vertex="1">
          <mxGeometry x="300" y="370" width="210" height="60" as="geometry" />
        </mxCell>
        <mxCell id="VAFKmhwclhle3ZTMb9hA-50" style="edgeStyle=orthogonalEdgeStyle;rounded=0;orthogonalLoop=1;jettySize=auto;html=1;exitX=0.75;exitY=1;exitDx=0;exitDy=0;entryX=1;entryY=0.75;entryDx=0;entryDy=0;" parent="1" source="VAFKmhwclhle3ZTMb9hA-48" target="VAFKmhwclhle3ZTMb9hA-48" edge="1">
          <mxGeometry relative="1" as="geometry" />
        </mxCell>
        <mxCell id="VAFKmhwclhle3ZTMb9hA-51" style="edgeStyle=orthogonalEdgeStyle;rounded=0;orthogonalLoop=1;jettySize=auto;html=1;exitX=0.5;exitY=1;exitDx=0;exitDy=0;entryX=0.5;entryY=0;entryDx=0;entryDy=0;entryPerimeter=0;" parent="1" source="VAFKmhwclhle3ZTMb9hA-47" target="VAFKmhwclhle3ZTMb9hA-46" edge="1">
          <mxGeometry relative="1" as="geometry" />
        </mxCell>
        <mxCell id="VAFKmhwclhle3ZTMb9hA-56" value="&lt;b style=&quot;forced-color-adjust: none; color: rgb(0, 0, 0); font-family: Helvetica; font-size: 11px; font-style: normal; font-variant-ligatures: normal; font-variant-caps: normal; letter-spacing: normal; orphans: 2; text-align: right; text-indent: 0px; text-transform: none; widows: 2; word-spacing: 0px; -webkit-text-stroke-width: 0px; white-space: nowrap; text-decoration-thickness: initial; text-decoration-style: initial; text-decoration-color: initial;&quot;&gt;No&lt;/b&gt;" style="text;whiteSpace=wrap;html=1;" parent="1" vertex="1">
          <mxGeometry x="261" y="486" width="25" height="20" as="geometry" />
        </mxCell>
        <mxCell id="VAFKmhwclhle3ZTMb9hA-57" value="&lt;b&gt;Yes&lt;/b&gt;" style="edgeLabel;html=1;align=right;verticalAlign=middle;resizable=0;points=[];labelPosition=left;verticalLabelPosition=middle;spacingLeft=16;" parent="1" vertex="1" connectable="0">
          <mxGeometry x="69.99999999999977" y="496" as="geometry" />
        </mxCell>
        <mxCell id="d_TJBWStE85XF-guMb0K-2" value="&lt;font style=&quot;font-size: 10px;&quot;&gt;If anything went wrong&lt;/font&gt;" style="text;html=1;align=center;verticalAlign=middle;whiteSpace=wrap;rounded=0;" parent="1" vertex="1">
          <mxGeometry x="340" y="440" width="60" height="30" as="geometry" />
        </mxCell>
      </root>
    </mxGraphModel>
  </diagram>
</mxfile>
